<svg xmlns="http://www.w3.org/2000/svg" viewBox="0 0 500 500"><defs><style>.cls-1{fill:#9dd2d8;}.cls-2{fill:#a54fe7;}.cls-3{fill:#fe9f59;}.cls-4{fill:#fe3838;}.cls-5{fill:#45c1ff;}.cls-6{fill:#9a35e7;}.cls-7{fill:#fe964a;}.cls-8{fill:none;stroke:#7024ab;stroke-linecap:round;stroke-linejoin:round;stroke-width:3px;}</style></defs><title>ico5</title><g id="Capa_2" data-name="Capa 2"><g id="Capa_1-2" data-name="Capa 1"><g id="shopping-basket"><polygon class="cls-1" points="500 250 473.2 279.4 491.5 314.7 458 336.2 466.5 375 428.6 387.1 426.8 426.8 387 428.6 375 466.5 336.2 458 314.7 491.5 279.4 473.2 250 500 220.6 473.2 185.3 491.5 163.8 458 125 466.5 112.9 428.6 73.2 426.8 71.4 387 33.5 375 41.9 336.2 8.5 314.7 26.8 279.4 0 250 26.8 220.6 8.5 185.3 41.9 163.8 33.5 125 71.4 113 73.2 73.2 113 71.4 125 33.5 163.8 42 185.3 8.5 220.6 26.8 250 0 279.4 26.8 314.7 8.5 336.2 42 375 33.5 387 71.4 426.8 73.2 428.6 113 466.5 125 458 163.8 491.5 185.3 473.2 220.6 500 250"/></g><g id="c71090ca-4700-4868-bc54-6bd6ef3139df"><path class="cls-2" d="M195.2,303.7l-49,55-8.7-60.8c5.5,2.4,23.1,3.9,37.4,4.8C186,303.4,195.2,303.7,195.2,303.7Z"/><path class="cls-3" d="M252.9,297.2l-26.1,54.5-16.4-25.2-16-24.6c5.4,2.4,22.9.7,37.4-1.3C243.3,299,252.9,297.2,252.9,297.2Z"/><path class="cls-4" d="M252.9,297.2,309,336.1l-1.8-54.6S269.6,298.5,252.9,297.2Z"/><path class="cls-5" d="M306.5,279.6l67.1,25.7L367,251S327.5,273.6,306.5,279.6Z"/><path class="cls-6" d="M195.2,303.7l-49,55,28.7-56C186,303.4,195.2,303.7,195.2,303.7Z"/><path class="cls-7" d="M252.9,297.2l-26.1,54.5-16.4-25.2,21.3-25.9C243.3,299,252.9,297.2,252.9,297.2Z"/><path class="cls-8" d="M120.9,293.5s65.9,21.8,148,0,110.2-51.2,110.2-51.2"/><path class="cls-2" d="M305.9,251.2l49,55,8.7-60.8c-5.5,2.4-23.1,3.9-37.4,4.8C315,251,305.9,251.2,305.9,251.2Z"/><path class="cls-3" d="M248.2,244.8l26,54.5L290.6,274l16-24.6c-5.4,2.4-22.9.7-37.4-1.3C257.7,246.5,248.2,244.8,248.2,244.8Z"/><path class="cls-4" d="M248.2,244.8l-56,38.9,1.8-54.6S231.5,246.1,248.2,244.8Z"/><path class="cls-5" d="M194.5,227.2l-71.4,18.1,22.6-48.5S173.6,221.2,194.5,227.2Z"/><path class="cls-6" d="M305.9,251.2l49,55-28.7-56C315,251,305.9,251.2,305.9,251.2Z"/><path class="cls-7" d="M248.2,244.8l26,54.5L290.6,274l-21.3-25.9C257.7,246.5,248.2,244.8,248.2,244.8Z"/><path class="cls-8" d="M380.2,241.1s-65.9,21.8-148,0-99.1-63.3-99.1-63.3"/><path class="cls-2" d="M186.8,171.4l-65.9,38.8,13.2-60.2c4.4,3.9,20.5,10.1,33.8,14.9C178.2,168.6,186.8,171.4,186.8,171.4Z"/><path class="cls-3" d="M244,181.1l-44,44.6-6.6-28.5-6.6-27.8c4.4,3.9,21.5,6.9,35.9,9C234.2,180.2,244,181.1,244,181.1Z"/><path class="cls-4" d="M244,181.1l39.6,52.4,17.6-52.4S259.3,187,244,181.1Z"/><path class="cls-5" d="M301.1,179.2l61.5,36.9-4.4-52.4S323.1,179.2,301.1,179.2Z"/><path class="cls-6" d="M186.8,171.4l-65.9,38.8,47-45.3C178.2,168.6,186.8,171.4,186.8,171.4Z"/><path class="cls-7" d="M244,181.1l-44,44.6-6.6-28.5,29.4-18.8C234.2,180.2,244,181.1,244,181.1Z"/><path class="cls-8" d="M119.8,141.3s54.9,38.8,140.6,40.8,116.5-33,116.5-33"/></g></g></g></svg>