<svg xmlns="http://www.w3.org/2000/svg" viewBox="0 0 62.2 62.2"><defs><style>.cls-1{fill:#009500;}.cls-2{fill:#fff;}</style></defs><title>Recurso 12</title><g id="Capa_2" data-name="Capa 2"><g id="Capa_1-2" data-name="Capa 1"><path class="cls-1" d="M31.1,0A31.1,31.1,0,1,1,0,31.1,31.1,31.1,0,0,1,31.1,0"/><path class="cls-2" d="M14.2,32.8V29.5a.5.5,0,0,1,0-.4l.2-.2,2.8-.4.6-1.4L16.2,25a.7.7,0,0,1-.1-.4.5.5,0,0,1,.1-.4l1.5-1.6a3.6,3.6,0,0,1,1.4-1.1h.4l2.1,1.6,1.4-.6a30.1,30.1,0,0,1,.4-3,.9.9,0,0,1,.5-.7h3.4l.4.4a.9.9,0,0,1,.2.5l.4,2.8,1.4.6,2.1-1.6h.7c1.7,1.6,2.6,2.5,2.6,2.9a.7.7,0,0,1-.1.4l-.8,1-.8,1.1.6,1.5,2.7.4.4.2.2.4v3.3l-.2.4-.4.2-2.8.4a9.5,9.5,0,0,1-.6,1.4l1.6,2.1a.6.6,0,0,1,.1.4.5.5,0,0,1-.1.4l-1.5,1.6A3.6,3.6,0,0,1,32,40.7h-.4l-2.1-1.6-1.4.6c-.1,1.3-.3,2.4-.4,3a.8.8,0,0,1-.5.6H23.9l-.4-.4-.2-.4-.4-2.8-1.4-.6-2.1,1.6h-.7c-1.7-1.6-2.6-2.5-2.6-2.9a.7.7,0,0,1,.1-.4l.7-.9.8-1.1a9.2,9.2,0,0,1-.6-1.5l-2.7-.4-.2-.2a1,1,0,0,1,0-.5m8-4.9a4.2,4.2,0,1,1,.1,0Zm14.9-4.1c-1.8-.2-2.9-.4-2.9-.6V20.7c0-.2,1.1-.4,2.9-.6l.7-.9a8.4,8.4,0,0,1-.9-2.5H37l.6-.4,1.1-.6.5-.3a2.6,2.6,0,0,1,.8.8l.9,1.2H42l1.7-2h.1L46,16.6h.1a9.6,9.6,0,0,1-.9,2.5l.4.9c1.8.2,2.5.4,2.5.6v2.5c0,.2-.7.4-2.5.6l-.5.9a10.5,10.5,0,0,1,1,2.5H46l-2.2,1.3a2.6,2.6,0,0,1-.8-.8l-.9-1.2H41l-.9,1.2a2.6,2.6,0,0,1-.8.8l-2.2-1.3H37a7.5,7.5,0,0,1,.8-2.5l-.6-.9Zm0,18.4c-1.8-.2-2.9-.4-2.9-.6V39.1c0-.2,1.1-.4,2.9-.6l.7-.9a8.4,8.4,0,0,1-.9-2.5H37l.6-.4,1.1-.6.5-.3a2.6,2.6,0,0,1,.8.8l.9,1.2H42l1.7-2h.1L46,35h.1a9.6,9.6,0,0,1-.9,2.5l.4.9c1.8.2,2.5.4,2.5.6v2.5c0,.2-.7.4-2.5.6l-.5.9a10.5,10.5,0,0,1,1,2.5H46l-2.2,1.3A2.6,2.6,0,0,1,43,46l-.9-1.2H41L40.1,46a2.6,2.6,0,0,1-.8.8l-2.2-1.3H37a7.5,7.5,0,0,1,.8-2.5l-.6-.9ZM39.3,22a2.3,2.3,0,1,0,.7-1.6,2.2,2.2,0,0,0-.7,1.5Zm0,18.4a2.3,2.3,0,1,0,.7-1.6,2.2,2.2,0,0,0-.7,1.5Z"/></g></g></svg>