<svg xmlns="http://www.w3.org/2000/svg" viewBox="0 0 500 500"><defs><style>.cls-1{fill:#9dd2d8;}.cls-2{fill:#fe9f59;}.cls-3{fill:#a54fe7;}.cls-4{fill:#fe3838;}.cls-5{fill:#db3030;}.cls-6{fill:#8e44c7;}.cls-7{fill:#fe964a;}.cls-8{fill:#b36fe7;}.cls-9{fill:#feb27a;}.cls-10{fill:none;stroke:#a81e49;stroke-linecap:round;stroke-miterlimit:10;stroke-width:2px;}</style></defs><title>ico3</title><g id="Capa_2" data-name="Capa 2"><g id="Capa_1-2" data-name="Capa 1"><g id="shopping-basket"><polygon class="cls-1" points="500 250 473.2 279.4 491.5 314.7 458 336.2 466.5 375 428.6 387.1 426.8 426.8 387 428.6 375 466.5 336.2 458 314.7 491.5 279.4 473.2 250 500 220.6 473.2 185.3 491.5 163.8 458 125 466.5 112.9 428.6 73.2 426.8 71.4 387 33.5 375 41.9 336.2 8.5 314.7 26.8 279.4 0 250 26.8 220.6 8.5 185.3 41.9 163.8 33.5 125 71.4 113 73.2 73.2 113 71.4 125 33.5 163.8 42 185.3 8.5 220.6 26.8 250 0 279.4 26.8 314.7 8.5 336.2 42 375 33.5 387 71.4 426.8 73.2 428.6 113 466.5 125 458 163.8 491.5 185.3 473.2 220.6 500 250"/></g><g id="eac945e7-497e-4702-940f-23af80b7aba8"><polygon class="cls-2" points="250 262.9 242.3 272.1 262.8 272.1 257.7 262.9 250 262.9"/><polygon class="cls-3" points="178.8 277 172 285.2 190.2 285.2 185.6 277 178.8 277"/><polygon class="cls-4" points="315.3 285.8 308.4 294.1 326.9 294.1 322.3 285.8 315.3 285.8"/><path class="cls-5" d="M380.2,231.6c0,18.4-9.9,34.7-25.2,44.9h0c-10,7-23.4,10.9-37.3,11-34.5-.1-62.6-25.1-62.6-55.9,0-22.2,14.5-41.4,35.4-50.4h0a68.4,68.4,0,0,1,27.1-5.5C352.1,175.6,380.2,200.7,380.2,231.6Z"/><path class="cls-4" d="M380.2,231.6c0,18.4-9.9,34.7-25.2,44.9h0a68.4,68.4,0,0,1-27.1,5.5c-17.4,0-33.2-6.3-44.4-16.6s-18.4-25.1-18.2-39.4c0-18.4,9.9-34.7,25.2-44.9h0a68.2,68.2,0,0,1,25.5-5.5h1.5C352.1,175.6,380.2,200.7,380.2,231.6Z"/><path class="cls-5" d="M334.3,215c0,18.4-9.9,34.7-25.2,44.9h0a68.2,68.2,0,0,1-25.5,5.5c-12-11.3-18.5-25.1-18.2-39.4,0-18.4,9.9-34.7,25.2-44.9h0a68.2,68.2,0,0,1,25.5-5.5C328.1,186.9,334.5,200.8,334.3,215Z"/><path class="cls-6" d="M242.3,223.8c0,30.2-27.4,54.8-61.3,54.8-31.8,0-57.9-21.6-61-49.3a50,50,0,0,1-.3-5.5c0-30.2,27.4-54.7,61.3-54.7,27.4,0,50.6,16.1,58.4,38.3A48.9,48.9,0,0,1,242.3,223.8Z"/><path class="cls-3" d="M239.8,212.8c0,30.2-27.4,54.8-61.3,54.8-27.4,0-50.6-16.1-58.4-38.3a50,50,0,0,1-.3-5.5c0-30.2,27.4-54.7,61.3-54.7,27.4,0,50.6,16.1,58.4,38.3A32.6,32.6,0,0,1,239.8,212.8Z"/><path class="cls-7" d="M321.5,203.1c0,34-30.9,61.6-68.9,61.6-21.7,0-41.1-9-53.6-23-10.2-11.5-15.5-25-15.3-38.6,0-34,30.9-61.6,68.9-61.6,16.5.2,32.1,5.2,43.4,13.8C311.6,166.6,321.5,183.8,321.5,203.1Z"/><path class="cls-2" d="M311.3,193.9c0,34-30.9,61.6-68.9,61.6-16.5-.2-32.1-5.2-43.4-13.8-10.2-11.5-15.5-25-15.3-38.6,0-34,30.9-61.6,68.9-61.6,16.5.2,32.1,5.2,43.4,13.8C306.1,166.8,311.4,180.2,311.3,193.9Z"/><path class="cls-8" d="M141.4,186.6c4.1-4.1,9.8-6.3,12.6-4.8s1.9,6-2.2,10.2-9.8,6.3-12.6,4.8S137.3,190.7,141.4,186.6Z"/><path class="cls-9" d="M215.4,157.2c4.1-4.1,9.8-6.3,12.6-4.8s1.9,6-2.2,10.2-9.8,6.3-12.6,4.8S211.3,161.3,215.4,157.2Z"/><ellipse class="cls-9" cx="210.4" cy="176.4" rx="3.8" ry="3.7"/><path class="cls-10" d="M183.6,279.4s12.8,14.7,20.4,47.8,30.6,7.4,35.7,7.4"/><path class="cls-10" d="M321.5,288.6s-42.3,7.9-53.6,40.5c-5.1,14.7-61.3,29.8-66.4,29.4"/><path class="cls-10" d="M255.1,264.7s-25.5,27.6-17.9,60.7,48.5,29.4,53.6,29.4"/><path class="cls-10" d="M188.7,279.4s-12.8-1.8-15.3,0"/><path class="cls-10" d="M326.6,288.6s-12.8-1.8-15.3,0"/><path class="cls-10" d="M261.5,265s-12.8-1.8-15.3,0"/></g></g></g></svg>