<svg xmlns="http://www.w3.org/2000/svg" viewBox="0 0 500 500"><defs><style>.cls-1{fill:#9dd2d8;}.cls-2{fill:#b76d02;}.cls-3{fill:#e20505;}.cls-4{fill:#ff1d1d;}.cls-5{fill:#919191;}.cls-6{fill:#c1c1c1;}.cls-7{fill:#fca22b;}.cls-8{fill:#231f20;}</style></defs><title>ico6</title><g id="Capa_2" data-name="Capa 2"><g id="Capa_1-2" data-name="Capa 1"><polygon class="cls-1" points="500 250 473.2 279.4 491.5 314.7 458 336.2 466.5 375 428.6 387.1 426.8 426.8 387 428.6 375 466.5 336.2 458 314.7 491.5 279.4 473.2 250 500 220.6 473.2 185.3 491.5 163.8 458 125 466.5 112.9 428.6 73.2 426.8 71.4 387 33.5 375 41.9 336.2 8.5 314.7 26.8 279.4 0 250 26.8 220.6 8.5 185.3 41.9 163.8 33.5 125 71.4 113 73.2 73.2 113 71.4 125 33.5 163.8 42 185.3 8.5 220.6 26.8 250 0 279.4 26.8 314.7 8.5 336.2 42 375 33.5 387 71.4 426.8 73.2 428.6 113 466.5 125 458 163.8 491.5 185.3 473.2 220.6 500 250"/><text></text><path class="cls-2" d="M343.5,220.3c6.8,3.3-19.8,10.7-43,12.2-8.7.7-35,.9-56.7,1.1l46-87.4c14.4.4,33.5,1.1,37.3,2.9,12.2,5.3,23.6,14.5,23.6,14.5S337.1,217,343.5,220.3Z"/><path class="cls-3" d="M350.4,328.1c-8,.4-47.5,22.2-47.5,22.2s-89-4.4-119.8-7.1l46-80c1.5.4,8,2.2,11,2.4,41.4,2.4,34.2-10.2,38.8-10.2s20.2,5.1,20.2,5.1l40.7-3.3C342.8,269.2,358,327.7,350.4,328.1Z"/><path class="cls-4" d="M234,264.8,193,343.3l-11.8-1.3c-5.7-1.8-1.5-6.7-3-19.3s-8-59.1-8-59.1c30.4,2.7,29.7-4.9,45.2-4.7C228.3,259,225.7,263,234,264.8Z"/><path class="cls-5" d="M366.4,245.9l-57.8,16.2-28.5-8s-39.5,17.8-52.5,14.5L247,231.4l55.9.9,43-7.6Z"/><path class="cls-6" d="M251.2,231.9,231.8,269a5.9,5.9,0,0,1-2.3-1.1c-10.3-7.1-12.9-11.1-19-10.2s-29.7,9.6-32.3,7.6-46-16.2-46-16.2l38-18Z"/><path class="cls-7" d="M296.4,146.1l-46,87.4c-35.7.2-76-.7-77.6-2.2s-14.1-77.6-14.1-77.6l68.8-6.9C227.6,146.5,266.7,145.4,296.4,146.1Z"/><path class="cls-8" d="M374,245.9c0-2-1.1-3.6-3-5.1-6.1-5.6-19.8-24.7-20.5-28.7-1.5-7.3,8.4-44.7,7.2-48.7-1.5-6-21.3-17.6-22.8-18-24.7-6.2-60.1-4.9-86.3-4.2-31.6.9-90.5,10-92.8,10-9.1,0,9.1,73.8,9.5,74.9-8,8.4-24.3,15.1-38.8,19.1-5.7,1.6-5.3,6.9,0,8.4l36.5,10.9v.2a216.8,216.8,0,0,1,8,48.9c.4,8.2-1.9,17.1-.4,25.3.4,3.6,1.1,5.3,6.5,7.6,6.8,2.9,104.6,7.6,126.6,7.8,1.5.2,11.4-1.8,12.2-3.8,6.1-3.6,11.8-7.1,18.3-10.2s16.3-4.9,20.9-8,2.7-9.1,1.9-13.3c-1.9-7.3-4.6-15.8-5.3-23.3-1.5-13.1-8-24-2.3-37.8C358.8,255.4,373.6,252.8,374,245.9ZM283.5,151c11.8.2,26.2,0,37.6,1.8-2.7,6.4-4.9,13.1-7.2,19.8-11,0-22.4,0-33.5.2C281.2,165.4,282.3,158.1,283.5,151Zm51,49.4a24.2,24.2,0,0,0-.4,5.1c-4.2-1.1-8.4-2.7-12.5-4.2l4.6-15.8,1.9,1.3c2.3,1.6,4.6,3.1,7.2,4.7A66.8,66.8,0,0,1,334.4,200.3Zm-24-18c-1.9,5.3-3.4,10.7-4.9,16.2-9.5-.9-19.4-.9-28.9-.9l2.3-15.1C289.2,182.3,299.8,182.3,310.5,182.3Zm-50.6,14.9c-12.5,0-24.7.2-37.3.7a91.9,91.9,0,0,1,1.1-14.2c12.5-.4,25.5-.9,38.4-1.1C261,187.6,260.7,192.3,259.9,197.2Zm-53.6,1.6c-10.3.7-20.2,1.3-30.4,2.4-1.1-4.9-1.9-9.6-3-14.5,11.4-.9,22.8-1.6,34.2-2.2C206.7,189.2,206.3,193.9,206.3,198.8ZM170.9,177c-1.1-5.8-2.3-11.8-3.8-17.6,14.1-2.4,28.5-4.4,43-5.8l-2.3,21.1C195.6,175.4,183.1,176.1,170.9,177Zm10.6,50.5c0-.2-2.3-11.3-3.4-16.7,9.5-.9,18.6-1.8,28.1-2.2a181.1,181.1,0,0,0,2.3,20.5C201.7,229,188,229.7,181.6,227.4Zm43.7,1.8a83.8,83.8,0,0,1-2.7-21.6c12.2-.4,24-.7,36.1-.7-.8,7.3-1.5,14.9-1.9,22.2C251.2,229.4,230.2,229.4,225.3,229.2Zm50.2-22c9.1.2,18.6.2,27.8,1.1a185.2,185.2,0,0,0-3.8,20L274,229A141.9,141.9,0,0,1,275.5,207.2Zm43.3,4.2c5.3,1.6,10.6,3.6,16.3,4.4a42.3,42.3,0,0,0,1.9,5.8,41.5,41.5,0,0,0-7.6.4c-4.6.7-9.1,1.8-13.7,2.9C316.9,220.3,318.1,215.9,318.8,211.4Zm18.6-35.6c0,.7-.4,1.6-.4,2.2a27,27,0,0,0-6.8-3.8c1.5-4.9,3.4-9.8,5.3-14.5,2.7,2,4.9,4.2,4.9,6.9C340.5,167.4,337.5,174.7,337.5,175.9Zm-70.7-25.1c-1.1,7.3-1.9,14.7-3,22-12.9.2-25.9.7-38.8,1.1.8-6.9,2.3-21.6,2.3-21.8C231.8,151.8,258.4,150.7,266.7,150.7ZM148.9,249.4c10.3-3.6,19.4-7.6,25.9-13.3,11.8,3.3,122.1,2.4,133.1,1.8,8.4-1.3,19-5.1,27.8-6.2l6.1-.4a19.4,19.4,0,0,0,6.5,8.9c0-.2,5.7,4.2,7.6,5.6-3,0-14.1,3.3-13.7,3.1-8,2-16.7,4.7-25.1,6s-11,2.2-19-.7c-6.1-2.2-9.5-4.9-17.1-5.8-4.2-.4-9.5.7-10.3,3.3-1.5,6.2-12.5,7.6-20.9,9.6s-11.4,3.3-17.5-.9-7.6-7.6-17.5-7.6c-12.5.2-15.6,8.2-29.7,6.9-7.6-.7-17.9-5.3-24.7-7.3A74.7,74.7,0,0,1,148.9,249.4Zm38.4,88.9c-1.5-12.2.8-24.9-.4-37.1a226.4,226.4,0,0,0-5.7-31.3,48.8,48.8,0,0,0,8,.9,31.7,31.7,0,0,0,15.6-3.1c1.9-.9,7.2-4.7,10.3-4,1.1.2,4.2,5.3,4.9,6,9.1,7.3,20.9,4.2,33.1,1.3s24-5.3,29.7-11.1c4.6,1.8,8.4,4.4,13.7,6-1.9,26.2-3,52.5,1.9,78.7C279.3,343.9,195.6,339.9,187.3,338.4ZM342.8,325a163.3,163.3,0,0,0-28.9,12.7c-3.8-23.6-2.3-47.6-.8-71.1a210.1,210.1,0,0,0,22.8-5.1C332.1,277.9,347,323.7,342.8,325Z"/></g></g></svg>