<svg xmlns="http://www.w3.org/2000/svg" xmlns:xlink="http://www.w3.org/1999/xlink" viewBox="0 0 290 330.5"><defs><style>.cls-1{fill:none;}.cls-2{fill:#fff;}.cls-3{fill:#455a64;}.cls-4{fill:#ffc107;}.cls-5{fill:#2196f3;}.cls-6{fill:#1976d2;}.cls-7{fill:#eceff1;}.cls-8{fill:#607d8b;}.cls-9{opacity:0.1;isolation:isolate;}.cls-10{clip-path:url(#clip-path);}.cls-11{fill:#221f1f;}</style><clipPath id="clip-path"><rect class="cls-1" x="145" width="144.6" height="330.49"/></clipPath></defs><title>minion</title><g id="Capa_2" data-name="Capa 2"><g id="Capa_1-2" data-name="Capa 1"><path class="cls-2" d="M0,88.8A14,14,0,0,1,6.3,77.9L138.7,1.5a14,14,0,0,1,12.6,0L283.6,77.9A14,14,0,0,1,290,88.8V241.7a14,14,0,0,1-6.3,10.9L151.3,329a14,14,0,0,1-12.6,0L6.3,252.6A14,14,0,0,1,0,241.7Z"/><path class="cls-3" d="M199.7,267.4c-8.3,0-13.2-11.2-14.2-13.5a5.1,5.1,0,0,1,2.8-6.6,5,5,0,0,1,6.4,2.7,15.7,15.7,0,0,0,5,7.2,34.8,34.8,0,0,0,5.5-11.3c1.9-23.7,1.1-52.1-3.6-56.9a5.2,5.2,0,0,1,.1-7.3,4.9,4.9,0,0,1,7,0c10.3,10.5,7.5,52.9,6.5,65.6a7.6,7.6,0,0,1-.2,1c-1.6,5.4-6.2,18.1-14.3,19Z"/><path class="cls-3" d="M195.2,257.2a5.1,5.1,0,0,1-5.1-5,5.5,5.5,0,0,1,.4-2.1,15.2,15.2,0,0,1,14.7-8.3,5.1,5.1,0,0,1,0,10.3c-4.2,0-5.4,2-5.5,2.2A4.8,4.8,0,0,1,195.2,257.2Z"/><path class="cls-3" d="M90.4,267.4H89.3c-8-.9-12.7-13.6-14.3-19a7.8,7.8,0,0,1-.2-1c-1.1-12.7-3.8-55.1,6.5-65.6a5,5,0,0,1,7.1-.1,5.2,5.2,0,0,1,.1,7.3h-.1c-4.8,4.9-5.6,33.2-3.6,56.9a27.1,27.1,0,0,0,6,11.3,22.7,22.7,0,0,0,4.5-7.2,4.9,4.9,0,0,1,6.6-2.5,5.2,5.2,0,0,1,2.6,6.5C103.6,256.2,98.6,267.4,90.4,267.4Z"/><path class="cls-3" d="M94.8,257.1a5,5,0,0,1-4.6-3c-.2-.3-1.4-2.2-5.5-2.2a5.1,5.1,0,0,1,0-10.3,15.2,15.2,0,0,1,14.7,8.3,5.1,5.1,0,0,1-2.7,6.7h0A4.3,4.3,0,0,1,94.8,257.1Z"/><path class="cls-4" d="M106.2,202.9a43.6,43.6,0,0,1-1.3-7.4,5.1,5.1,0,0,0-1.8-3.9l-4.4-3.7c-13.8-11.7-13.8-11.9-13.8-18a5.1,5.1,0,0,0-4.4-5.1,4.9,4.9,0,0,0-5.5,3.7c15.7,22.6-1.1,33.7,5.1,49.2a5,5,0,0,0,4.8,3.5H99.9a7.5,7.5,0,0,0,6-2.8C108.9,214.5,107.6,208.8,106.2,202.9Z"/><path class="cls-4" d="M215.2,169.1a4.7,4.7,0,0,0-5.2-4.3h-.1a5,5,0,0,0-4.6,5.1c0,6.2,0,6.3-13.9,18l-4.4,3.7a5.2,5.2,0,0,0-1.8,3.9,39.3,39.3,0,0,1-1.3,7.4c-1.4,6-2.6,11.6.3,15.4a7.4,7.4,0,0,0,6,2.8h15a5,5,0,0,0,4.6-3.1C215.6,202.4,199.2,188.3,215.2,169.1Z"/><path class="cls-3" d="M89.8,57a5,5,0,0,1-5-5.1,5.2,5.2,0,0,1,1.5-3.6,52.4,52.4,0,0,1,55.6-11.4,5.2,5.2,0,0,1,2.8,6.7,5,5,0,0,1-6.5,2.9,42.4,42.4,0,0,0-44.8,9.1A5.3,5.3,0,0,1,89.8,57Z"/><path class="cls-3" d="M200.2,57a5.1,5.1,0,0,1-3.6-1.5,42.6,42.6,0,0,0-44.8-9.1,4.9,4.9,0,0,1-6.5-2.9,5.2,5.2,0,0,1,2.8-6.6,52.3,52.3,0,0,1,55.6,11.4,5.2,5.2,0,0,1,0,7.3,4.8,4.8,0,0,1-3.5,1.5Z"/><path class="cls-4" d="M145,36.5c-33.3,0-60.2,27.6-60.2,61.5A35.9,35.9,0,0,0,85,102a5.7,5.7,0,0,0-.1,1.3v61.5a5.3,5.3,0,0,0,1.8,4A100.9,100.9,0,0,0,145,190.4a100.7,100.7,0,0,0,58.4-21.7,5.2,5.2,0,0,0,1.8-4V98.1C205.2,64.1,178.3,36.5,145,36.5Z"/><path class="cls-3" d="M145,169.9a51.8,51.8,0,0,1-28.2-11.4,5.2,5.2,0,0,1-.6-7.2,4.9,4.9,0,0,1,6.9-.8,42.8,42.8,0,0,0,22,9.1,41.3,41.3,0,0,0,22-9.1,4.9,4.9,0,0,1,7.1.8,5.2,5.2,0,0,1-.8,7.2h0A51.9,51.9,0,0,1,145,169.9Z"/><path class="cls-5" d="M205.2,210.9H192.5c.2-1.7.8-4,1.1-5.7s1-4.8,1.4-7.2l2.7-2.3c14.2-11.9,17.5-14.7,17.5-25.9a10.7,10.7,0,0,0-4.4-9.6,14,14,0,0,0-12.6-.2l-1.2.7a91.9,91.9,0,0,1-52,19.4,92.3,92.3,0,0,1-52-19.4l-1.2-.7a14,14,0,0,0-12.6.2,10.7,10.7,0,0,0-4.4,9.6c0,11.2,3.4,14,17.5,26l2.7,2.3a62.2,62.2,0,0,0,1.4,7.2c.4,1.6.9,3.9,1.1,5.6H84.8a5.1,5.1,0,0,0-5,5.1,5.7,5.7,0,0,0,.1,1.3,45.1,45.1,0,0,0,33.9,34.1,24.2,24.2,0,0,1-3.6,4.9,16.3,16.3,0,0,0-5.4,11.1,5.1,5.1,0,0,0,5,5.1H140a5,5,0,0,0,4.8-3.9v0a5,5,0,0,0,4.8,3.9h30.1a5.1,5.1,0,0,0,5-5.1,16.7,16.7,0,0,0-5.4-11,22.5,22.5,0,0,1-3.6-4.9,45.2,45.2,0,0,0,33.9-34.2,5.1,5.1,0,0,0-3.7-6.2Z"/><path class="cls-6" d="M172.9,191.2a4.9,4.9,0,0,0-4.8-.4,64.6,64.6,0,0,1-23.1,4.7,64.8,64.8,0,0,1-23.1-4.7,4.9,4.9,0,0,0-6.6,2.6,5.5,5.5,0,0,0-.4,2.1c.1,12.4,6.6,35.9,30.1,35.9s30-23.5,30.1-35.9A4.9,4.9,0,0,0,172.9,191.2Z"/><ellipse class="cls-7" cx="127.5" cy="98.1" rx="17.5" ry="17.9"/><path class="cls-3" d="M127.5,121.1A23.1,23.1,0,1,1,150,98.1,22.8,22.8,0,0,1,127.5,121.1Zm0-35.9A12.8,12.8,0,1,0,140,98.1a12.7,12.7,0,0,0-12.6-12.8Z"/><ellipse class="cls-7" cx="162.6" cy="98.1" rx="17.5" ry="17.9"/><path class="cls-3" d="M162.6,121.1a23.1,23.1,0,1,1,22.6-23.1h0A22.9,22.9,0,0,1,162.6,121.1Zm0-35.9a12.8,12.8,0,1,0,12.6,12.9,12.7,12.7,0,0,0-12.6-12.9Z"/><path class="cls-3" d="M205.2,108.3a4.3,4.3,0,0,1-1.7-.3,79.5,79.5,0,0,0-23.3-4.8,5.1,5.1,0,0,1,0-10.3A90.3,90.3,0,0,1,207,98.3a5.1,5.1,0,0,1,3,6.6A4.9,4.9,0,0,1,205.2,108.3Z"/><path class="cls-3" d="M84.8,108.3a5.2,5.2,0,0,1-1.7-10,89.7,89.7,0,0,1,26.8-5.4,5.1,5.1,0,0,1,0,10.3A82.7,82.7,0,0,0,86.5,108,5,5,0,0,1,84.8,108.3Z"/><ellipse class="cls-8" cx="130" cy="103.2" rx="5" ry="5.1"/><ellipse class="cls-8" cx="165.1" cy="103.2" rx="5" ry="5.1"/><path d="M145,190.4a100.7,100.7,0,0,1-58.4-21.7,5.2,5.2,0,0,1-1.8-4V103.2A4.9,4.9,0,0,1,85,102q-.1-1.9-.1-3.9c0-34,27-61.5,60.2-61.5s60.2,27.6,60.2,61.5v66.7a5.3,5.3,0,0,1-1.8,4A101,101,0,0,1,145,190.4ZM94.8,162.2A91,91,0,0,0,145,180.1a91,91,0,0,0,50.2-17.9V98.1c0-28.3-22.5-51.3-50.2-51.3S94.8,69.7,94.8,98.1c0,1.6.1,3.1.2,4.7a5.2,5.2,0,0,1-.2,2.1v57.4Z"/><path d="M127.5,121.1A23.1,23.1,0,1,1,150,98.1,22.8,22.8,0,0,1,127.5,121.1Zm0-35.9A12.8,12.8,0,1,0,140,98.1a12.7,12.7,0,0,0-12.6-12.8Z"/><path d="M162.6,121.1a23.1,23.1,0,1,1,22.6-23.1h0A22.9,22.9,0,0,1,162.6,121.1Zm0-35.9a12.8,12.8,0,1,0,12.6,12.9,12.7,12.7,0,0,0-12.6-12.9Z"/><path d="M205.2,108.3a4.3,4.3,0,0,1-1.7-.3,79.5,79.5,0,0,0-23.3-4.8,5.1,5.1,0,0,1,0-10.3A90.3,90.3,0,0,1,207,98.3a5.1,5.1,0,0,1,3,6.6A5.1,5.1,0,0,1,205.2,108.3Z"/><path d="M84.8,108.3a5.2,5.2,0,0,1-1.7-10A89.7,89.7,0,0,1,109.9,93a5.1,5.1,0,0,1,0,10.3,82.7,82.7,0,0,0-23.4,4.8Z"/><path d="M145,169.9a52,52,0,0,1-28.2-11.4,5.2,5.2,0,0,1-.8-7.2,4.9,4.9,0,0,1,7.1-.8,42.2,42.2,0,0,0,22,9.1,42.8,42.8,0,0,0,22-9.1,4.9,4.9,0,0,1,7.1.8,5.2,5.2,0,0,1-.8,7.2A51.6,51.6,0,0,1,145,169.9Z"/><path d="M90.4,267.4H89.3c-8-.9-12.7-13.6-14.3-19a7.8,7.8,0,0,1-.2-1c-1.1-12.7-3.8-55.1,6.5-65.6a5,5,0,0,1,7.1-.1,5.2,5.2,0,0,1,.1,7.3h-.1c-4.8,4.9-5.6,33.2-3.6,56.9a27.1,27.1,0,0,0,6,11.3,22.7,22.7,0,0,0,4.5-7.2,4.9,4.9,0,0,1,6.6-2.5,5.2,5.2,0,0,1,2.6,6.5C103.6,256.2,98.6,267.4,90.4,267.4Z"/><path d="M94.8,257.1a5,5,0,0,1-4.6-3c-.2-.3-1.4-2.2-5.5-2.2a5.1,5.1,0,0,1,0-10.3,15.2,15.2,0,0,1,14.7,8.3,5.1,5.1,0,0,1-2.7,6.7h0A4.3,4.3,0,0,1,94.8,257.1Z"/><path d="M180.2,272.5H150a5,5,0,0,1-4.8-3.9v0a5,5,0,0,1-4.8,3.9H110a5.1,5.1,0,0,1-5-5.1,16.4,16.4,0,0,1,5.4-11.1,25,25,0,0,0,3.6-4.8,45.1,45.1,0,0,1-33.9-34.2,5.1,5.1,0,0,1,3.6-6.2h14c-.2-1.7-.8-4.1-1.1-5.7a62,62,0,0,1-1.4-7.2l-2.4-2.1c-14.4-12-17.8-14.9-17.8-26.1a11,11,0,0,1,4.4-9.7,14,14,0,0,1,12.6-.2,5.2,5.2,0,0,1,2.8,6.7,5,5,0,0,1-6.5,2.8h-.3a6.5,6.5,0,0,0-3-.6v1c0,6.2,0,6.4,14.1,18.2l4.1,3.5a5.2,5.2,0,0,1,1.8,4,38.8,38.8,0,0,0,1.3,7.4c1.4,6,2.7,11.6-.3,15.4a7.6,7.6,0,0,1-6,2.8H92.1A31.1,31.1,0,0,0,120,241.7a5.1,5.1,0,0,1,5,5.1,22.4,22.4,0,0,1-6.4,15.4h17.4l4-16.6a5.2,5.2,0,0,1,9.7,0l4,16.6h17.5a22.4,22.4,0,0,1-6.4-15.4,5.1,5.1,0,0,1,5-5.1A31,31,0,0,0,198,221.2h-7.8a7.4,7.4,0,0,1-6-2.8c-3-3.8-1.6-9.5-.3-15.4a43.9,43.9,0,0,0,1.3-7.4,5.1,5.1,0,0,1,1.8-3.9l4.1-3.5c14.1-11.8,14.1-12.1,14.1-18.2a3.3,3.3,0,0,0-.2-1.3c-.1.1-1.8.4-2.9.9a4.9,4.9,0,0,1-6.6-2.6,5.1,5.1,0,0,1,2.6-6.7,13.9,13.9,0,0,1,12.6.2,10.7,10.7,0,0,1,4.4,9.7c0,11.3-3.4,14.1-17.8,26.2l-2.4,2.1c-.3,2.4-.8,4.8-1.4,7.2s-.9,4-1.1,5.7h12.7a5.1,5.1,0,0,1,5,5.1,5.7,5.7,0,0,1-.1,1.3,45.2,45.2,0,0,1-33.9,34.2,22,22,0,0,0,3.6,4.8,16.5,16.5,0,0,1,5.4,11.1A5.2,5.2,0,0,1,180.2,272.5Z"/><path d="M199.7,267.4c-8.3,0-13.2-11.2-14.2-13.5a5.1,5.1,0,0,1,2.8-6.6,5,5,0,0,1,6.4,2.7,15.7,15.7,0,0,0,5,7.2,34.8,34.8,0,0,0,5.5-11.3c1.9-23.7,1.1-52.1-3.6-56.9a5.2,5.2,0,0,1,.1-7.3,4.9,4.9,0,0,1,7,0c10.3,10.5,7.5,52.9,6.5,65.6a7.6,7.6,0,0,1-.2,1c-1.6,5.4-6.2,18.1-14.3,19Z"/><path d="M195.2,257.2a5.1,5.1,0,0,1-5.1-5,5.5,5.5,0,0,1,.4-2.1,15.2,15.2,0,0,1,14.7-8.3,5.1,5.1,0,0,1,0,10.3c-4.2,0-5.4,2-5.5,2.2A4.8,4.8,0,0,1,195.2,257.2Z"/><path d="M145,231.4c-23.5,0-30-23.5-30.1-35.9a5.1,5.1,0,0,1,4.9-5.2,5.2,5.2,0,0,1,2.1.4,64.6,64.6,0,0,0,23.1,4.7,64.8,64.8,0,0,0,23.1-4.7,4.9,4.9,0,0,1,6.6,2.6,5.5,5.5,0,0,1,.4,2.1C175,208,168.5,231.4,145,231.4ZM126,203a20,20,0,0,0,19,18.2,19.9,19.9,0,0,0,19-18.2,66.4,66.4,0,0,1-38.1,0Z"/><path d="M89.8,57a5.1,5.1,0,0,1-5-5.1,5.2,5.2,0,0,1,1.5-3.6,52.4,52.4,0,0,1,55.6-11.4,5.2,5.2,0,0,1,2.6,6.8,5,5,0,0,1-6.3,2.7,42.5,42.5,0,0,0-44.8,9.1A4.9,4.9,0,0,1,89.8,57Z"/><path d="M200.2,57a5.1,5.1,0,0,1-3.6-1.5,43,43,0,0,0-44.7-9.1,5,5,0,0,1-6.5-2.8,5.2,5.2,0,0,1,2.8-6.7,52.3,52.3,0,0,1,55.6,11.4,5.2,5.2,0,0,1,0,7.3,4.8,4.8,0,0,1-3.5,1.5Z"/><ellipse cx="130" cy="103.2" rx="5" ry="5.1"/><ellipse cx="165.1" cy="103.2" rx="5" ry="5.1"/><g class="cls-9"><g class="cls-10"><g class="cls-10"><path class="cls-11" d="M283.3,77.9,150.9,1.5A12.7,12.7,0,0,0,145,0V330.5a12.8,12.8,0,0,0,6-1.5l132.4-76.4a14,14,0,0,0,6.3-10.9V88.8a14,14,0,0,0-6.3-10.9"/></g></g></g></g></g></svg>